# AST/ASF file generated using VICON BodyLanguage
# -----------------------------------------------
:version 1.10
:name VICON
:units
  mass 1.0
  length 0.45
  angle deg
:documentation
   .ast/.asf automatically generated from VICON data using
   VICON BodyBuilder and BodyLanguage model FoxedUp or BRILLIANT.MOD
:root
   order TX TY TZ RX RY RZ
   axis XYZ
   position 0 0 0  
   orientation 0 0 0 
:bonedata
  begin
     id 1 
     name lhipjoint
     direction 0.567725 -0.736092 0.368589 
     length 2.42353 
     axis 0 0 0  XYZ
  end
  begin
     id 2 
     name lfemur
     direction 0.34202 -0.939693 0  
     length 7.24894  
     axis 0 0 20  XYZ
    dof rx ry rz
    limits (-160.0 20.0)
           (-70.0 70.0)
           (-60.0 70.0)
  end
  begin
     id 3 
     name ltibia
     direction 0.34202 -0.939693 0   
     length 7.6997   
     axis 0 0 20   XYZ
    dof rx
    limits (-10.0 170.0)
  end
  begin
     id 4 
     name lfoot
     direction 0.100767 -0.276854 0.955614   
     length 2.37556   
     axis -90 7.62852e-016 20   XYZ
    dof rx rz
    limits (-45.0 90.0)
           (-70.0 20.0)
  end
  begin
     id 5 
     name ltoes
     direction 1.53592e-011 -4.21894e-011 1   
     length 1.18363   
     axis -90 7.62852e-016 20   XYZ
    dof rx
    limits (-90.0 20.0)
  end
  begin
     id 6 
     name rhipjoint
     direction -0.556459 -0.742938 0.372017   
     length 2.4012  
     axis 0 0 0  XYZ 
  end
  begin
     id 7 
     name rfemur
     direction -0.34202 -0.939693 0   
     length 7.5119   
     axis 0 0 -20   XYZ
    dof rx ry rz
    limits (-160.0 20.0)
           (-70.0 70.0)
           (-70.0 60.0)
  end
  begin
     id 8 
     name rtibia
     direction -0.34202 -0.939693 0   
     length 7.50155   
     axis 0 0 -20   XYZ
    dof rx
    limits (-10.0 170.0)
 end
 begin
     id 9 
     name rfoot
     direction -0.118427 -0.325376 0.938139   
     length 2.32487  
     axis -90 -7.62852e-016 -20   XYZ
    dof rx rz
    limits (-45.0 90.0)
           (-20.0 70.0)
  end
  begin
     id 10 
     name rtoes
     direction -1.53525e-011 -4.21868e-011 1   
     length 1.15233   
     axis -90 -7.62852e-016 -20   XYZ
    dof rx
    limits (-90.0 20.0)
  end
  begin
     id 11 
     name lowerback
     direction 0.0287568 0.999577 -0.00434502   
     length 2.15243   
     axis 0 0 0   XYZ
    dof rx ry rz
    limits (-20.0 45.0)
           (-30.0 30.0)
           (-30.0 30.0)
  end
  begin
     id 12 
     name upperback
     direction 0.0294009 0.99956 0.00404628   
     length 2.15427   
     axis 0 0 0   XYZ
    dof rx ry rz
    limits (-20.0 45.0)
           (-30.0 30.0)
           (-30.0 30.0)
  end
  begin
     id 13 
     name thorax
     direction 0.0151014 0.999868 0.0059419   
     length 2.14898   
     axis 0 0 0   XYZ
    dof rx ry rz
    limits (-20.0 45.0)
           (-30.0 30.0)
           (-30.0 30.0)
  end
  begin
     id 14 
     name lowerneck
     direction -0.0249197 0.989906 0.139515   
     length 1.6861   
     axis 0 0 0   XYZ
    dof rx ry rz
    limits (-20.0 45.0)
           (-30.0 30.0)
           (-30.0 30.0)
  end
  begin
     id 15 
     name upperneck
     direction 0.0438463 0.988795 -0.142693   
     length 1.71276   
     axis 0 0 0   XYZ
    dof rx ry rz
    limits (-20.0 45.0)
           (-30.0 30.0)
           (-30.0 30.0)
  end
  begin
     id 16
     name head
     direction 0.0148499 0.997845 -0.0639186  
     length 1.7209  
     axis 0 0 0   XYZ
    dof rx ry rz
    limits (-20.0 45.0)
           (-30.0 30.0)
           (-30.0 30.0)
  end
  begin
     id 17 
     name lclavicle
     direction 0.940298 0.323464 -0.105876  
     length 3.9048  
     axis 0 0 0   XYZ
    dof ry rz
    limits (-20.0 10.0)
           (0.0 20.0)
  end
  begin
     id 18 
     name lhumerus
     direction 1 -4.48954e-011 -4.9675e-028   
     length 4.6851   
     axis 180 -30 -90   XYZ
    dof rx ry rz
    limits (-60.0 90.0)
           (-90.0 90.0)
           (-90.0 90.0)
  end
  begin
     id 19
     name lradius
     direction 1 -4.48992e-011 -1.03359e-026   
     length 3.39626   
     axis 180 -30 -90   XYZ
    dof rx
    limits (-10.0 170.0)
  end
  begin
     id 20
     name lwrist
     direction 1 -4.48906e-011 -1.67336e-026   
     length 1.69813   
     axis 9.90442e-015 90 90   XYZ
    dof ry
    limits (-180.0 0.0)
 end
  begin
     id 21 
     name lhand
     direction 1 -4.49006e-011 -3.34673e-026   
     length 0.486078   
     axis 2.1355e-014 90 90   XYZ
    dof rx rz
    limits (-90.0 90.0)
           (-45.0 45.0)
  end
  begin
     id 22 
     name lfingers
     direction 1 -4.48992e-011 -6.69345e-026   
     length 0.391889   
     axis 4.27099e-014 90 90   XYZ
    dof rx
    limits (0.0 90.0)
  end
  begin
     id 23
     name lthumb
     direction 0.707107 -6.34926e-011 0.707107   
     length 0.562676   
     axis -90 45 2.85299e-015   XYZ
    dof rx rz
    limits (-45.0 45.0)
           (-45.0 45.0)
  end
  begin
     id 24 
     name rclavicle
     direction -0.882459 0.414895 -0.221648   
     length 3.44646  
     axis 0 0 0   XYZ 
    dof ry rz
    limits (-10.0 20.0)
           (-20.0 0.0)
  end
  begin
     id 25 
     name rhumerus
     direction -1 -4.48962e-011 -2.37984e-027  
     length 5.55576   
     axis 180 30 90   XYZ
    dof rx ry rz
    limits (-90.0 60.0)
           (-90.0 90.0)
           (-90.0 90.0)
  end
  begin
     id 26 
     name rradius
     direction -1 -4.48982e-011 -6.86791e-027   
     length 3.32774   
     axis 180 30 90   XYZ
    dof rx
    limits (-10.0 170.0)
  end
  begin
     id 27 
     name rwrist
     direction -1 -4.48961e-011 -1.67336e-026   
     length 1.66387   
     axis 9.90442e-015 -90 -90   XYZ
    dof ry
    limits (-180.0 0.0)
  end
  begin
     id 28
     name rhand
     direction -1 -4.4897e-011 -3.34673e-026   
     length 0.507628   
     axis 2.1355e-014 -90 -90   XYZ
    dof rx rz
    limits (-90.0 90.0)
           (-45.0 45.0)
  end
  begin
     id 29
     name rfingers
     direction -1 -4.48854e-011 -6.69345e-026   
     length 0.409263   
     axis 4.27099e-014 -90 -90   XYZ
    dof rx
    limits (0.0 90.0)
  end
  begin
     id 30
     name rthumb
     direction -0.707107 -6.34913e-011 0.707107   
     length 0.587622   
     axis -90 -45 -2.85299e-015   XYZ
    dof rx rz
    limits (-45.0 45.0)
           (-45.0 45.0)
  end
:hierarchy
  begin
    root lhipjoint rhipjoint lowerback
    lhipjoint lfemur
    lfemur ltibia
    ltibia lfoot
    lfoot ltoes
    rhipjoint rfemur
    rfemur rtibia
    rtibia rfoot
    rfoot rtoes
    lowerback upperback
    upperback thorax
    thorax lowerneck lclavicle rclavicle
    lowerneck upperneck
    upperneck head
    lclavicle lhumerus
    lhumerus lradius
    lradius lwrist
    lwrist lhand lthumb
    lhand lfingers
    rclavicle rhumerus
    rhumerus rradius
    rradius rwrist
    rwrist rhand rthumb
    rhand rfingers
  end

#!OML:ASF E:\motion texture\Top Level 1\Subject 1\Session 1\male.ASF
:FULLY-SPECIFIED
:DEGREES
95
root 43.0142 17.2978 4.98274 90.9998 -81.5292 -79.1983
lowerback -1.18892 1.17169 6.41931
upperback -0.0874686 1.45447 0.689516
thorax 0.719837 0.738688 -2.85849
lowerneck -21.98 -1.99696 -6.24048
upperneck 13.1515 -2.1041 6.97825
head 7.78784 -0.621286 3.08197
rclavicle 1.48095e-014 1.55052e-014
rhumerus -24.0469 -11.4503 -86.2176
rradius 25.6707
rwrist 18.3869
rhand -14.7266 -26.2329
rfingers 7.12502
rthumb 11.4284 -55.9014
lclavicle 1.48095e-014 1.55052e-014
lhumerus -32.4374 28.6842 75.0542
lradius 24.3725
lwrist -33.5836
lhand -15.1052 21.0351
lfingers 7.12502
lthumb 11.0633 50.7235
rfemur -2.16109 3.8096 32.8242
rtibia 14.757
rfoot -23.0772 -12.9727
rtoes 21.8746
lfemur -41.8177 1.95971 -5.05247
ltibia 28.3026
lfoot -8.02401 8.20987
ltoes -11.5146
96
root 42.9127 17.2867 4.99306 91.1649 -81.5817 -79.2351
lowerback -1.22162 1.18802 6.43768
upperback -0.109808 1.47515 0.645994
thorax 0.718742 0.74884 -2.91273
lowerneck -21.999 -1.99025 -6.22997
upperneck 13.0918 -2.08928 6.95111
head 7.76951 -0.61624 3.07224
rclavicle -8.44835e-015 5.56597e-015
rhumerus -23.9234 -11.2756 -86.3365
rradius 25.787
rwrist 18.2696
rhand -14.741 -26.2727
rfingers 7.12502
rthumb 11.4146 -55.942
lclavicle -8.44835e-015 5.56597e-015
lhumerus -32.5475 28.956 74.8628
lradius 24.245
lwrist -33.7679
lhand -15.1649 21.0891
lfingers 7.12502
lthumb 11.0057 50.7806
rfemur -1.95384 3.81845 32.7273
rtibia 14.8018
rfoot -23.2351 -12.9273
rtoes 21.5966
lfemur -41.7366 1.67993 -4.90592
ltibia 27.0701
lfoot -7.86993 8.40815
ltoes -11.1636
97
root 42.809 17.2757 5.0042 91.2902 -81.633 -79.2398
lowerback -1.25148 1.20347 6.45253
upperback -0.129643 1.49479 0.603258
thorax 0.718469 0.75854 -2.96424
lowerneck -22.0159 -1.98317 -6.21754
upperneck 13.0291 -2.07494 6.92578
head 7.74988 -0.611194 3.06271
rclavicle 5.76476e-015 2.66371e-014
rhumerus -23.8026 -11.1423 -86.4393
rradius 25.8801
rwrist 18.1839
rhand -14.7613 -26.3029
rfingers 7.12502
rthumb 11.3949 -55.9733
lclavicle 5.76476e-015 2.66371e-014
lhumerus -32.6567 29.2394 74.6655
lradius 24.1083
lwrist -33.9695
lhand -15.2211 21.1477
lfingers 7.12502
lthumb 10.9515 50.842
rfemur -1.75388 3.8157 32.625
rtibia 14.886
rfoot -23.3774 -12.8716
rtoes 21.2703
lfemur -41.6418 1.39474 -4.76674
ltibia 25.9137
lfoot -7.70319 8.59247
ltoes -10.8211
98
root 42.7031 17.2649 5.01617 91.3614 -81.6831 -79.1975
lowerback -1.27884 1.21746 6.4642
upperback -0.147353 1.51263 0.561421
thorax 0.718736 0.767382 -3.01312
lowerneck -22.0316 -1.97779 -6.20483
upperneck 12.9637 -2.06341 6.90255
head 7.7294 -0.607301 3.05345
rclavicle 1.47101e-014 1.19271e-015
rhumerus -23.6848 -11.0461 -86.5282
rradius 25.9542
rwrist 18.117
rhand -14.7809 -26.3374
rfingers 7.12502
rthumb 11.376 -56.0089
lclavicle 1.47101e-014 1.19271e-015
lhumerus -32.7649 29.5294 74.4641
lradius 23.9637
lwrist -34.1837
lhand -15.273 21.2073
lfingers 7.12502
lthumb 10.9014 50.9043
rfemur -1.5657 3.80068 32.5177
rtibia 15.0159
rfoot -23.5016 -12.8061
rtoes 20.8881
lfemur -41.5377 1.10592 -4.63771
ltibia 24.8406
lfoot -7.52701 8.75925
ltoes -10.4797
99
root 42.5952 17.2546 5.02891 91.382 -81.7322 -79.1109
lowerback -1.30378 1.23032 6.47122
upperback -0.163293 1.52913 0.520607
thorax 0.719223 0.775586 -3.0584
lowerneck -22.0455 -1.97503 -6.19405
upperneck 12.8945 -2.05568 6.88383
head 7.70771 -0.604916 3.04549
rclavicle -1.12313e-014 -1.63003e-014
rhumerus -23.5705 -10.988 -86.6025
rradius 26.0071
rwrist 18.0752
rhand -14.8007 -26.3699
rfingers 7.12502
rthumb 11.357 -56.0423
lclavicle -1.12313e-014 -1.63003e-014
lhumerus -32.8712 29.8253 74.2596
lradius 23.8121
lwrist -34.4094
lhand -15.3209 21.2711
lfingers 7.12502
lthumb 10.8553 50.9706
rfemur -1.39275 3.77246 32.4044
rtibia 15.1945
rfoot -23.6016 -12.7302
rtoes 20.444
lfemur -41.4267 0.816859 -4.5211
ltibia 23.8558
lfoot -7.34536 8.90689
ltoes -10.1351
100
root 42.4849 17.2447 5.0425 91.3587 -81.7807 -78.989
lowerback -1.32641 1.24253 6.47401
upperback -0.176935 1.54492 0.480474
thorax 0.720603 0.783496 -3.10066
lowerneck -22.0561 -1.97213 -6.18104
upperneck 12.824 -2.04906 6.86749
head 7.68513 -0.602786 3.0378
rclavicle -6.75868e-015 -7.95139e-015
rhumerus -23.4596 -10.9685 -86.6626
rradius 26.0384
rwrist 18.0551
rhand -14.8185 -26.4064
rfingers 7.12502
rthumb 11.3398 -56.0799
lclavicle -6.75868e-015 -7.95139e-015
lhumerus -32.9768 30.1278 74.0512
lradius 23.6537
lwrist -34.6487
lhand -15.3657 21.3351
lfingers 7.12502
lthumb 10.812 51.0368
rfemur -1.23452 3.72921 32.2838
rtibia 15.4242
rfoot -23.6737 -12.6426
rtoes 19.9315
lfemur -41.3064 0.530597 -4.42055
ltibia 22.9594
lfoot -7.15497 9.03723
ltoes -9.79378
101
root 42.3725 17.2355 5.05691 91.2936 -81.8307 -78.8326
lowerback -1.34689 1.2541 6.47009
upperback -0.189001 1.56006 0.440647
thorax 0.722169 0.791106 -3.13889
lowerneck -22.0626 -1.9707 -6.16958
upperneck 12.751 -2.04517 6.85661
head 7.66137 -0.601577 3.03183
rclavicle 4.96962e-015 1.03368e-014
rhumerus -23.3541 -10.9851 -86.7091
rradius 26.0503
rwrist 18.0538
rhand -14.8334 -26.4456
rfingers 7.12502
rthumb 11.3254 -56.1198
lclavicle 4.96962e-015 1.03368e-014
lhumerus -33.0817 30.4343 73.8399
lradius 23.4899
lwrist -34.8978
lhand -15.4055 21.3999
lfingers 7.12502
lthumb 10.7736 51.1036
rfemur -1.09503 3.67106 32.1533
rtibia 15.7081
rfoot -23.7117 -12.5437
rtoes 19.3426
lfemur -41.1796 0.253005 -4.3429
ltibia 22.1573
lfoot -6.95952 9.14598
ltoes -9.4575
102
root 42.2577 17.2271 5.07216 91.1758 -81.882 -78.6328
lowerback -1.36477 1.26423 6.4605
upperback -0.198736 1.5735 0.400725
thorax 0.724379 0.79794 -3.17411
lowerneck -22.0676 -1.97097 -6.15826
upperneck 12.6771 -2.04432 6.84954
head 7.63734 -0.601493 3.02677
rclavicle -1.32192e-014 1.51076e-014
rhumerus -23.2527 -11.0377 -86.7433
rradius 26.04
rwrist 18.0775
rhand -14.8494 -26.482
rfingers 7.12502
rthumb 11.31 -56.1571
lclavicle -1.32192e-014 1.51076e-014
lhumerus -33.1854 30.7444 73.6256
lradius 23.3218
lwrist -35.1563
lhand -15.4396 21.465
lfingers 7.12502
lthumb 10.7408 51.1704
rfemur -0.97523 3.59654 32.0125
rtibia 16.0492
rfoot -23.712 -12.4344
rtoes 18.6699
lfemur -41.0442 -0.0162577 -4.28942
ltibia 21.4442
lfoot -6.75183 9.23013
ltoes -9.12355
103
root 42.1408 17.2196 5.08822 91.0132 -81.9351 -78.3966
lowerback -1.38021 1.27359 6.44408
upperback -0.207318 1.58618 0.360883
thorax 0.72615 0.804387 -3.20549
lowerneck -22.0679 -1.97296 -6.14608
upperneck 12.6017 -2.04669 6.84461
head 7.61229 -0.602784 3.02185
rclavicle -1.98785e-016 2.50469e-014
rhumerus -23.1576 -11.125 -86.7648
rradius 26.0093
rwrist 18.1234
rhand -14.8632 -26.5178
rfingers 7.12502
rthumb 11.2967 -56.1936
lclavicle -1.98785e-016 2.50469e-014
lhumerus -33.2896 31.0555 73.4089
lradius 23.1511
lwrist -35.4243
lhand -15.4646 21.5346
lfingers 7.12502
lthumb 10.7166 51.2413
rfemur -0.879693 3.50519 31.8605
rtibia 16.4517
rfoot -23.6683 -12.3138
rtoes 17.9128
lfemur -40.9016 -0.272739 -4.2637
ltibia 20.823
lfoot -6.53724 9.28765
ltoes -8.78403
104
root 42.0216 17.2131 5.10503 90.7888 -81.991 -78.1081
lowerback -1.39273 1.28121 6.41946
upperback -0.214239 1.59685 0.320714
thorax 0.727588 0.809851 -3.23271
lowerneck -22.0641 -1.97603 -6.13389
upperneck 12.5257 -2.05171 6.84486
head 7.58664 -0.604921 3.01832
rclavicle -1.56046e-014 3.97569e-015
rhumerus -23.0685 -11.2455 -86.7749
rradius 25.9588
rwrist 18.1914
rhand -14.8748 -26.5534
rfingers 7.12502
rthumb 11.2855 -56.2298
lclavicle -1.56046e-014 3.97569e-015
lhumerus -33.3932 31.3631 73.1916
lradius 22.98
lwrist -35.6977
lhand -15.4815 21.6026
lfingers 7.12502
lthumb 10.7003 51.3101
rfemur -0.8094 3.39678 31.6961
rtibia 16.9161
rfoot -23.5745 -12.1878
rtoes 17.0674
lfemur -40.751 -0.515223 -4.26945
ltibia 20.292
lfoot -6.3163 9.31619
ltoes -8.43997
105
root 41.9002 17.2078 5.12267 90.5155 -82.0499 -77.7801
lowerback -1.40278 1.28777 6.3877
upperback -0.219827 1.60639 0.280048
thorax 0.728726 0.814766 -3.25652
lowerneck -22.0544 -1.97718 -6.11788
upperneck 12.4509 -2.05617 6.84774
head 7.56043 -0.606455 3.01513
rclavicle 2.08724e-015 2.78299e-014
rhumerus -22.9865 -11.3984 -86.7735
rradius 25.8887
rwrist 18.2846
rhand -14.8848 -26.5837
rfingers 7.12502
rthumb 11.2759 -56.2607
lclavicle 2.08724e-015 2.78299e-014
lhumerus -33.4962 31.6659 72.9748
lradius 22.809
lwrist -35.9726
lhand -15.492 21.6698
lfingers 7.12502
lthumb 10.6902 51.3778
rfemur -0.766655 3.27066 31.5182
rtibia 17.4435
rfoot -23.4183 -12.0545
rtoes 16.1412
lfemur -40.5916 -0.742709 -4.30704
ltibia 19.8512
lfoot -6.09478 9.31662
ltoes -8.08474
